name rise30.3154peak39.0474fall46.5389.mot
datacolumns 19
datarows 12
range 13.06161700000000 13.07995400000000
endheader
time	ground_force1_vx	ground_force1_vy	ground_force1_vz	ground_force1_px	ground_force1_py	ground_force1_pz	ground_force2_vx	ground_force2_vy	ground_force2_vz	ground_force2_px	ground_force2_py	ground_force2_pz	ground_torque1_x	ground_torque1_y	ground_torque1_z	ground_torque2_x	ground_torque2_y	ground_torque2_z	
13.06161700000000	-0.26224700000000	705.80633300000000	42.00573800000000	0.24346400000000	0.00000000000000	0.10181100000000	0.00000000000000	0.00000000000000	0.00000000000000	0.00000000000000	0.00000000000000	0.00000000000000	0.00000000000000	19.90090600000000	0.00000000000000	0.00000000000000	0.00000000000000	0.00000000000000	
13.06328700000000	-0.72456200000000	706.44685000000004	42.02785600000000	0.24282600000000	0.00000000000000	0.10172200000000	0.00000000000000	0.00000000000000	0.00000000000000	0.00000000000000	0.00000000000000	0.00000000000000	0.00000000000000	19.99934800000000	0.00000000000000	0.00000000000000	0.00000000000000	0.00000000000000	
13.06495600000000	-1.19486900000000	707.11458900000002	42.05741000000000	0.24220200000000	0.00000000000000	0.10163200000000	0.00000000000000	0.00000000000000	0.00000000000000	0.00000000000000	0.00000000000000	0.00000000000000	0.00000000000000	20.10390400000000	0.00000000000000	0.00000000000000	0.00000000000000	0.00000000000000	
13.06662500000000	-1.67362500000000	707.80945499999996	42.09404900000000	0.24159100000000	0.00000000000000	0.10154200000000	0.00000000000000	0.00000000000000	0.00000000000000	0.00000000000000	0.00000000000000	0.00000000000000	0.00000000000000	20.21427600000000	0.00000000000000	0.00000000000000	0.00000000000000	0.00000000000000	
13.06828700000000	-2.16126700000000	708.53143499999999	42.13742100000000	0.24098900000000	0.00000000000000	0.10145200000000	0.00000000000000	0.00000000000000	0.00000000000000	0.00000000000000	0.00000000000000	0.00000000000000	0.00000000000000	20.33016000000000	0.00000000000000	0.00000000000000	0.00000000000000	0.00000000000000	
13.06996700000000	-2.65820600000000	709.28059900000005	42.18717500000000	0.24039400000000	0.00000000000000	0.10136100000000	0.00000000000000	0.00000000000000	0.00000000000000	0.00000000000000	0.00000000000000	0.00000000000000	0.00000000000000	20.45124900000000	0.00000000000000	0.00000000000000	0.00000000000000	0.00000000000000	
13.07161800000000	-3.16483000000000	710.05709200000001	42.24296200000000	0.23980400000000	0.00000000000000	0.10127100000000	0.00000000000000	0.00000000000000	0.00000000000000	0.00000000000000	0.00000000000000	0.00000000000000	0.00000000000000	20.57723300000000	0.00000000000000	0.00000000000000	0.00000000000000	0.00000000000000	
13.07328600000000	-3.68149600000000	710.86113200000000	42.30443900000000	0.23921600000000	0.00000000000000	0.10118000000000	0.00000000000000	0.00000000000000	0.00000000000000	0.00000000000000	0.00000000000000	0.00000000000000	0.00000000000000	20.70779600000000	0.00000000000000	0.00000000000000	0.00000000000000	0.00000000000000	
13.07495300000000	-4.20853200000000	711.69300699999997	42.37126500000000	0.23862700000000	0.00000000000000	0.10108900000000	0.00000000000000	0.00000000000000	0.00000000000000	0.00000000000000	0.00000000000000	0.00000000000000	0.00000000000000	20.84262400000000	0.00000000000000	0.00000000000000	0.00000000000000	0.00000000000000	
13.07661700000000	-4.74623100000000	712.55306700000006	42.44310700000000	0.23803600000000	0.00000000000000	0.10099900000000	0.00000000000000	0.00000000000000	0.00000000000000	0.00000000000000	0.00000000000000	0.00000000000000	0.00000000000000	20.98140100000000	0.00000000000000	0.00000000000000	0.00000000000000	0.00000000000000	
13.07828800000000	-5.29485200000000	713.44171900000003	42.51964100000000	0.23743900000000	0.00000000000000	0.10090800000000	0.00000000000000	0.00000000000000	0.00000000000000	0.00000000000000	0.00000000000000	0.00000000000000	0.00000000000000	21.12381200000000	0.00000000000000	0.00000000000000	0.00000000000000	0.00000000000000	
13.07995400000000	-5.85461200000000	714.35942100000000	42.60055100000000	0.23683400000000	0.00000000000000	0.10081900000000	0.00000000000000	0.00000000000000	0.00000000000000	0.00000000000000	0.00000000000000	0.00000000000000	0.00000000000000	21.26954000000000	0.00000000000000	0.00000000000000	0.00000000000000	0.00000000000000	
